<?xml version="1.0" encoding="UTF-8" standalone="no"?>
<svg
   xmlns:dc="http://purl.org/dc/elements/1.1/"
   xmlns:cc="http://creativecommons.org/ns#"
   xmlns:rdf="http://www.w3.org/1999/02/22-rdf-syntax-ns#"
   xmlns:svg="http://www.w3.org/2000/svg"
   xmlns="http://www.w3.org/2000/svg"
   xmlns:sodipodi="http://sodipodi.sourceforge.net/DTD/sodipodi-0.dtd"
   xmlns:inkscape="http://www.inkscape.org/namespaces/inkscape"
   viewBox="0 0 554.5 440.50002"
   version="1.1"
   id="svg38"
   sodipodi:docname="logo.svg"
   inkscape:export-filename="/home/markus/Coding/blog/content/images/pyconca2017/logo.png"
   inkscape:export-xdpi="62.330002"
   inkscape:export-ydpi="62.330002"
   width="554.5"
   height="440.5"
   inkscape:version="0.92.2 5c3e80d, 2017-08-06">
  <metadata
     id="metadata44">
    <rdf:RDF>
      <cc:Work
         rdf:about="">
        <dc:format>image/svg+xml</dc:format>
        <dc:type
           rdf:resource="http://purl.org/dc/dcmitype/StillImage" />
        <dc:title></dc:title>
      </cc:Work>
    </rdf:RDF>
  </metadata>
  <defs
     id="defs42" />
  <sodipodi:namedview
     pagecolor="#ffffff"
     bordercolor="#666666"
     borderopacity="1"
     objecttolerance="10"
     gridtolerance="10"
     guidetolerance="10"
     inkscape:pageopacity="0"
     inkscape:pageshadow="2"
     inkscape:window-width="2560"
     inkscape:window-height="1351"
     id="namedview40"
     showgrid="false"
     inkscape:snap-page="false"
     inkscape:pagecheckerboard="false"
     inkscape:zoom="1.1553449"
     inkscape:cx="10.191364"
     inkscape:cy="245.0076"
     inkscape:window-x="0"
     inkscape:window-y="0"
     inkscape:window-maximized="1"
     inkscape:current-layer="svg38" />
  <g
     id="g5186"
     transform="translate(0,-0.44511)">
    <path
       inkscape:connector-curvature="0"
       style="fill:#96d7e3;fill-opacity:1"
       id="path2"
       d="m 77.7,-194.3 c -0.8,0 -1.5,-0.7 -1.5,-1.5 V -323 c 0,-0.8 0.7,-1.5 1.5,-1.5 0.8,0 1.5,0.7 1.5,1.5 v 127.2 c 0,0.8 -0.7,1.5 -1.5,1.5 z M 73,-321.5 c -0.6,0 -1.1,-0.3 -1.3,-0.8 L 58,-349.7 H 46.6 l -13.7,27.4 c -0.4,0.7 -1.3,1 -2,0.7 -0.7,-0.4 -1,-1.3 -0.7,-2 l 14.1,-28.2 c 0.3,-0.5 0.8,-0.8 1.3,-0.8 h 13.2 c 0.6,0 1.1,0.3 1.3,0.8 l 14.1,28.2 c 0.4,0.7 0.1,1.6 -0.7,2 -0.1,0 -0.3,0.1 -0.5,0.1 z m -46.2,127.2 c -0.8,0 -1.5,-0.7 -1.5,-1.5 V -323 c 0,-0.8 0.7,-1.5 1.5,-1.5 0.8,0 1.5,0.7 1.5,1.5 v 127.2 c 0,0.8 -0.6,1.5 -1.5,1.5 z" />
    <path
       inkscape:connector-curvature="0"
       style="fill:#96d7e3;fill-opacity:1"
       id="path4"
       d="M 58.8,-299.60001 H 45.7 c -0.8,0 -1.5,-0.7 -1.5,-1.5 v -9.3 H 41 c -0.8,0 -1.5,-0.7 -1.5,-1.5 v -9.6 H 26.8 c -0.8,0 -1.5,-0.7 -1.5,-1.5 0,-0.8 0.7,-1.5 1.5,-1.5 H 41 c 0.8,0 1.5,0.7 1.5,1.5 v 9.6 h 3.2 c 0.8,0 1.5,0.7 1.5,1.5 v 9.3 h 10.2 v -9.3 c 0,-0.8 0.7,-1.5 1.5,-1.5 H 62 v -9.6 c 0,-0.8 0.7,-1.5 1.5,-1.5 h 14.1 c 0.8,0 1.5,0.7 1.5,1.5 0,0.8 -0.7,1.5 -1.5,1.5 H 65 v 9.6 c 0,0.8 -0.7,1.5 -1.5,1.5 h -3.2 v 9.3 c 0,0.8 -0.6,1.5 -1.5,1.5 z m 2.1,-42.2 H 43.6 c -0.8,0 -1.5,-0.7 -1.5,-1.5 0,-0.8 0.7,-1.5 1.5,-1.5 h 17.2 c 0.8,0 1.5,0.7 1.5,1.5 0,0.8 -0.6,1.5 -1.4,1.5 z m -8.6,59.9 c -0.8,0 -1.5,-0.7 -1.5,-1.5 v -6.3 c 0,-0.8 0.7,-1.5 1.5,-1.5 0.8,0 1.5,0.7 1.5,1.5 v 6.3 c 0,0.8 -0.7,1.5 -1.5,1.5 z m 14.1,0.2 c -0.8,0 -1.5,-0.7 -1.5,-1.5 v -6.7 c 0,-0.8 0.7,-1.5 1.5,-1.5 0.8,0 1.5,0.7 1.5,1.5 v 6.7 c 0,0.8 -0.6,1.5 -1.5,1.5 z m -28.3,0 c -0.8,0 -1.5,-0.7 -1.5,-1.5 v -6.7 c 0,-0.8 0.7,-1.5 1.5,-1.5 0.8,0 1.5,0.7 1.5,1.5 v 6.7 c 0,0.8 -0.7,1.5 -1.5,1.5 z m 14.2,16.9 c -0.8,0 -1.5,-0.7 -1.5,-1.5 v -6.3 c 0,-0.8 0.7,-1.5 1.5,-1.5 0.8,0 1.5,0.7 1.5,1.5 v 6.3 c 0,0.9 -0.7,1.5 -1.5,1.5 z m 14.1,0.2 c -0.8,0 -1.5,-0.7 -1.5,-1.5 v -6.7 c 0,-0.8 0.7,-1.5 1.5,-1.5 0.8,0 1.5,0.7 1.5,1.5 v 6.7 c 0,0.8 -0.6,1.5 -1.5,1.5 z m -28.3,0 c -0.8,0 -1.5,-0.7 -1.5,-1.5 v -6.7 c 0,-0.8 0.7,-1.5 1.5,-1.5 0.8,0 1.5,0.7 1.5,1.5 v 6.7 c 0,0.8 -0.7,1.5 -1.5,1.5 z m 14.2,17 c -0.8,0 -1.5,-0.7 -1.5,-1.5 v -6.3 c 0,-0.8 0.7,-1.5 1.5,-1.5 0.8,0 1.5,0.7 1.5,1.5 v 6.3 c 0,0.8 -0.7,1.5 -1.5,1.5 z m 14.1,0.2 c -0.8,0 -1.5,-0.7 -1.5,-1.5 v -6.7 c 0,-0.8 0.7,-1.5 1.5,-1.5 0.8,0 1.5,0.7 1.5,1.5 v 6.7 c 0,0.8 -0.6,1.5 -1.5,1.5 z m -28.3,0 c -0.8,0 -1.5,-0.7 -1.5,-1.5 v -6.7 c 0,-0.8 0.7,-1.5 1.5,-1.5 0.8,0 1.5,0.7 1.5,1.5 v 6.7 c 0,0.8 -0.7,1.5 -1.5,1.5 z m 14.2,17 c -0.8,0 -1.5,-0.7 -1.5,-1.5 v -6.3 c 0,-0.8 0.7,-1.5 1.5,-1.5 0.8,0 1.5,0.7 1.5,1.5 v 6.3 c 0,0.8 -0.7,1.5 -1.5,1.5 z m 14.1,0.2 c -0.8,0 -1.5,-0.7 -1.5,-1.5 v -6.7 c 0,-0.8 0.7,-1.5 1.5,-1.5 0.8,0 1.5,0.7 1.5,1.5 v 6.7 c 0,0.8 -0.6,1.5 -1.5,1.5 z m -28.3,0 c -0.8,0 -1.5,-0.7 -1.5,-1.5 v -6.7 c 0,-0.8 0.7,-1.5 1.5,-1.5 0.8,0 1.5,0.7 1.5,1.5 v 6.7 c 0,0.8 -0.7,1.5 -1.5,1.5 z m 14.2,16.9 c -0.8,0 -1.5,-0.7 -1.5,-1.5 v -6.3 c 0,-0.8 0.7,-1.5 1.5,-1.5 0.8,0 1.5,0.7 1.5,1.5 v 6.3 c 0,0.9 -0.7,1.5 -1.5,1.5 z m 14.1,0.2 c -0.8,0 -1.5,-0.7 -1.5,-1.5 v -6.7 c 0,-0.8 0.7,-1.5 1.5,-1.5 0.8,0 1.5,0.7 1.5,1.5 v 6.7 c 0,0.8 -0.6,1.5 -1.5,1.5 z m -28.3,0 c -0.8,0 -1.5,-0.7 -1.5,-1.5 v -6.7 c 0,-0.8 0.7,-1.5 1.5,-1.5 0.8,0 1.5,0.7 1.5,1.5 v 6.7 c 0,0.8 -0.7,1.5 -1.5,1.5 z m 208.7,293.1 C 246,79.99999 245.3,79.3 245.3,78.5 V 31.50011 c 0,-0.8 0.7,-1.5 1.5,-1.5 0.8,0 1.5,0.7 1.5,1.5 V 78.5 c 0,0.9 -0.6,1.49999 -1.5,1.49999 z m -4.7,-46.99988 c -0.6,0 -1.1,-0.3 -1.3,-0.8 l -13.7,-27.4 h -11.3 l -13.7,27.4 c -0.4,0.7 -1.3,1 -2,0.7 -0.7,-0.4 -1,-1.3 -0.7,-2 l 14.1,-28.2 c 0.3,-0.5 0.8,-0.8 1.3,-0.8 H 228 c 0.6,0 1.1,0.3 1.3,0.8 l 14.1,28.2 c 0.4,0.7 0.1,1.6 -0.7,2 -0.1,0.1 -0.3,0.1 -0.6,0.1 z M 196,104.99999 c -0.8,0 -1.5,-0.7 -1.5,-1.5 V 31.50011 c 0,-0.8 0.7,-1.5 1.5,-1.5 0.8,0 1.5,0.7 1.5,1.5 v 71.99988 c 0,0.8 -0.7,1.5 -1.5,1.5 z" />
    <path
       inkscape:connector-curvature="0"
       style="fill:#96d7e3;fill-opacity:1"
       id="path6"
       d="m 228,55.00007 h -13.2 c -0.8,0 -1.5,-0.7 -1.5,-1.5 V 44.2001 h -3.2 c -0.8,0 -1.5,-0.7 -1.5,-1.49999 v -9.6 H 196 c -0.8,0 -1.5,-0.7 -1.5,-1.5 0,-0.8 0.7,-1.5 1.5,-1.5 h 14.1 c 0.8,0 1.5,0.7 1.5,1.5 v 9.6 h 3.2 c 0.8,0 1.5,0.7 1.5,1.5 v 9.29997 h 10.2 v -9.29997 c 0,-0.8 0.7,-1.5 1.5,-1.5 h 3.2 v -9.6 c 0,-0.8 0.7,-1.5 1.5,-1.5 h 14.1 c 0.8,0 1.5,0.7 1.5,1.5 0,0.8 -0.7,1.5 -1.5,1.5 h -12.6 v 9.6 c 0,0.79999 -0.7,1.49999 -1.5,1.49999 h -3.2 v 9.29997 c 0,0.8 -0.7,1.5 -1.5,1.5 z m 2,-42.29996 h -17.2 c -0.8,0 -1.5,-0.7 -1.5,-1.5 0,-0.8 0.7,-1.5 1.5,-1.5 H 230 c 0.8,0 1.5,0.7 1.5,1.5 0,0.8 -0.6,1.5 -1.5,1.5 z m -8.6,59.89991 c -0.8,0 -1.5,-0.7 -1.5,-1.5 v -6.29998 c 0,-0.8 0.7,-1.5 1.5,-1.5 0.8,0 1.5,0.7 1.5,1.5 v 6.29998 c 0,0.9 -0.6,1.5 -1.5,1.5 z m 14.2,0.19999 c -0.8,0 -1.5,-0.69999 -1.5,-1.49999 v -6.69998 c 0,-0.8 0.7,-1.5 1.5,-1.5 0.8,0 1.5,0.7 1.5,1.5 v 6.69998 c 0,0.8 -0.7,1.49999 -1.5,1.49999 z m -28.4,0 c -0.8,0 -1.5,-0.69999 -1.5,-1.49999 v -6.69998 c 0,-0.8 0.7,-1.5 1.5,-1.5 0.8,0 1.5,0.7 1.5,1.5 v 6.69998 c 0,0.8 -0.6,1.49999 -1.5,1.49999 z m 14.2,16.99998 c -0.8,0 -1.5,-0.7 -1.5,-1.5 v -6.3 c 0,-0.8 0.7,-1.5 1.5,-1.5 0.8,0 1.5,0.7 1.5,1.5 v 6.3 c 0,0.8 -0.6,1.5 -1.5,1.5 z m 14.2,-5.1 c -0.8,0 -1.5,-0.7 -1.5,-1.5 v -1.4 c 0,-0.8 0.7,-1.5 1.5,-1.5 0.8,0 1.5,0.7 1.5,1.5 v 1.4 c 0,0.8 -0.7,1.5 -1.5,1.5 z m -28.4,5.3 c -0.8,0 -1.5,-0.7 -1.5,-1.5 v -6.7 c 0,-0.8 0.7,-1.5 1.5,-1.5 0.8,0 1.5,0.7 1.5,1.5 v 6.7 c 0,0.8 -0.6,1.5 -1.5,1.5 z m 482.7,-297 c 0,0 0.1,-0.1 0,0 0.1,-0.2 0.1,-0.3 0.1,-0.3 v -0.7 c 0,-0.1 0,-0.1 -0.1,-0.2 0,0 0,-0.1 -0.1,-0.1 0,-0.1 -0.1,-0.1 -0.1,-0.2 0,0 0,-0.1 -0.1,-0.1 l -0.1,-0.1 c -0.2,-0.2 -15.4,-12.1 -37.6,-19.6 h -0.1 c -0.1,0 -0.1,-0.1 -0.2,-0.1 h -0.3 c -10.1,-3.4 -21.6,-5.8 -33.8,-5.8 -27.4,0 -51.1,12.1 -63.7,19.9 -2.6,-6.4 -3.8,-14.1 -2.2,-23.8 3.5,-20.7 20,-45.3 48.9,-73.1 0.4,-0.4 0.6,-1.1 0.4,-1.6 -0.2,-0.6 -0.8,-0.9 -1.4,-0.9 h -53.7 c -0.5,0 -1,0.3 -1.3,0.8 -0.3,0.5 -0.3,1 0,1.5 0.3,0.4 23.9,44.4 -92.6,114.7 -0.6,0.3 -0.9,1 -0.7,1.7 0.2,0.7 0.8,1.1 1.4,1.1 h 217.1 c 0.2,0 0.4,0 0.6,-0.1 9.5,-4.1 18.7,-11.8 19.1,-12.1 l 0.1,-0.1 0.1,-0.1 c 0.3,-0.6 0.3,-0.7 0.3,-0.7 z m -6,-2.2 h -13.7 c -1.1,-2.1 -4.2,-7.5 -10.1,-13 10.9,4.7 19.3,9.9 23.8,13 z m -42.1,11.9 c 4.6,-3.8 7.1,-7.3 8,-8.9 h 15.7 c -2.9,2.5 -7.9,6.3 -14.7,8.9 z m -15.8,0 c 2.1,-3.9 2.9,-7.1 3.2,-8.9 h 17 c -1.6,2.1 -4.6,5.6 -9.4,8.9 z m -13.7,0 c -2.2,-3.8 -3.2,-7 -3.6,-8.9 H 626 c -0.4,1.8 -1.4,5.1 -3.6,8.9 z m -14.2,0 c -4.8,-3.3 -7.8,-6.7 -9.4,-8.9 h 17 c 0.3,1.7 1.2,4.9 3.2,8.9 z m -14,0 c -6.8,-2.6 -11.8,-6.4 -14.7,-8.9 h 15.7 c 0.9,1.5 3.4,5.1 8,8.9 z m -18.3,0 c -0.7,-0.8 -1.5,-1.6 -2.3,-2.5 -1.7,-1.9 -3.5,-4 -5.1,-6.4 h 6.6 c 1.3,1.4 5.5,5.4 11.9,8.9 z m 73.7,-28.5 c 4.2,6.1 6.6,13.3 7.5,16.5 h -17.7 c -0.2,-2.9 -0.9,-9.8 -2.4,-16.5 z m -15.6,0 c 1.5,6.5 2.2,13.5 2.4,16.5 h -17.7 c 0.2,-3.1 0.9,-10.1 2.4,-16.5 z m -18.3,16.6 h -17.7 c 0.9,-3.3 3.3,-10.4 7.5,-16.5 H 608 c -1.5,6.7 -2.2,13.6 -2.4,16.5 z m -21.4,-16.6 h 7.6 c -4.1,6.7 -6.3,13.8 -7,16.5 h -16.6 c 2,-3.5 7.1,-10.8 16,-16.5 z m 65.9,16.6 c -0.7,-2.8 -2.9,-9.9 -7,-16.5 h 7.6 c 8.9,5.7 14,13 16.1,16.5 z m -9.8,-19.6 h -45.9 c 7.2,-1.7 15,-2.8 23,-2.8 8,0 15.7,1.1 22.9,2.8 z m -85.3,16.9 c 4.9,-3.1 11.7,-6.9 19.8,-10.4 -5.9,5.5 -9.1,11 -10.2,13.1 h -8.2 c -0.2,-0.4 -0.4,-0.8 -0.7,-1.1 -0.2,-0.6 -0.4,-1.1 -0.7,-1.6 z m -9.7,-68.7 c 6.5,-15.7 4.3,-26.1 2.8,-30.5 h 47.7 c -27.7,27.2 -43.6,51.4 -47.1,72.1 -1.9,11.1 -0.1,19.9 3.1,27 v 0.1 c 0.8,1.8 1.6,3.4 2.6,4.9 0,0.1 0.1,0.1 0.1,0.2 1.7,2.8 3.6,5.2 5.5,7.4 0.1,0.1 0.2,0.3 0.3,0.4 0.5,0.6 1,1.1 1.4,1.6 H 458 c 47,-28.9 76.4,-56.9 87.3,-83.2 z m 124.3,83.3 H 658 c 6.4,-3.5 10.6,-7.5 11.9,-8.9 h 14.3 c -3.4,2.5 -9,6.4 -14.6,8.9 z" />
    <path
       inkscape:connector-curvature="0"
       style="fill:#96d7e3;fill-opacity:1"
       id="path8"
       d="m 513.8,-223.30001 h 23.9 c 0.8,0 1.5,-0.7 1.5,-1.5 0,-0.8 -0.7,-1.5 -1.5,-1.5 h -23.9 c -0.8,0 -1.5,0.7 -1.5,1.5 0,0.8 0.7,1.5 1.5,1.5 z m 9.8,-8.3 H 538 c 0.8,0 1.5,-0.7 1.5,-1.5 0,-0.8 -0.7,-1.5 -1.5,-1.5 h -14.3 c -0.8,0 -1.5,0.7 -1.5,1.5 0,0.8 0.6,1.5 1.4,1.5 z m -19.6,16.7 h 35.2 c 0.8,0 1.5,-0.7 1.5,-1.5 0,-0.8 -0.7,-1.5 -1.5,-1.5 H 504 c -0.8,0 -1.5,0.7 -1.5,1.5 0,0.8 0.7,1.5 1.5,1.5 z m 38.4,5.7 h -51 c -0.8,0 -1.5,0.7 -1.5,1.5 0,0.8 0.7,1.5 1.5,1.5 h 51 c 0.8,0 1.5,-0.7 1.5,-1.5 0,-0.8 -0.7,-1.5 -1.5,-1.5 z m 16.6,-93.1 h 20.7 c 0.8,0 1.5,-0.7 1.5,-1.5 0,-0.8 -0.7,-1.5 -1.5,-1.5 H 559 c -0.8,0 -1.5,0.7 -1.5,1.5 0,0.8 0.6,1.5 1.5,1.5 z m -0.3,8.6 h 13 c 0.8,0 1.5,-0.7 1.5,-1.5 0,-0.8 -0.7,-1.5 -1.5,-1.5 h -13 c -0.8,0 -1.5,0.7 -1.5,1.5 0,0.8 0.7,1.5 1.5,1.5 z m -1.9,8.6 h 7.6 c 0.8,0 1.5,-0.7 1.5,-1.5 0,-0.8 -0.7,-1.5 -1.5,-1.5 h -7.6 c -0.8,0 -1.5,0.7 -1.5,1.5 0,0.8 0.7,1.5 1.5,1.5 z m -19.9,469 c 0,-0.1 0,-0.1 0,0 0.1,-0.2 0.1,-0.3 0.1,-0.3 v -0.7 c 0,-0.1 0,-0.1 -0.1,-0.2 0,0 0,-0.1 -0.1,-0.1 0,-0.1 -0.1,-0.1 -0.1,-0.2 0,0 0,-0.1 -0.1,-0.1 l -0.1,-0.1 c -0.2,-0.2 -15.4,-12.1 -37.6,-19.6 h -0.1 c -0.1,0 -0.1,-0.1 -0.2,-0.1 h -0.3 c -10.1,-3.4 -21.6,-5.8 -33.8,-5.8 -27.4,0 -51.1,12.1 -63.7,19.9 -2.6,-6.4 -3.8,-14.1 -2.2,-23.8 3.5,-20.7 20,-45.3 48.9,-73.09999 0.4,-0.4 0.6,-1.1 0.4,-1.6 -0.2,-0.6 -0.8,-0.9 -1.4,-0.9 h -53.7 c -0.5,0 -1,0.3 -1.3,0.8 -0.3,0.5 -0.3,1 0,1.5 0.3,0.39999 23.9,44.39999 -92.6,114.69999 -0.6,0.3 -0.9,1 -0.7,1.7 0.2,0.7 0.8,1.1 1.4,1.1 h 217.1 c 0.2,0 0.4,0 0.6,-0.1 9.5,-4.1 18.7,-11.8 19.1,-12.1 l 0.1,-0.1 0.1,-0.1 c 0.2,-0.6 0.2,-0.7 0.3,-0.7 z m -6,-2.2 h -13.7 c -1.1,-2.1 -4.2,-7.5 -10.1,-13 10.9,4.6 19.3,9.9 23.8,13 z m -42.2,11.8 c 4.6,-3.8 7.1,-7.3 8,-8.9 h 15.7 c -2.9,2.5 -7.9,6.3 -14.7,8.9 z m -15.8,0 c 2.1,-3.9 2.9,-7.1 3.2,-8.9 h 17 c -1.6,2.1 -4.6,5.6 -9.4,8.9 z m -13.6,0 c -2.2,-3.8 -3.2,-7 -3.6,-8.9 H 473 c -0.4,1.8 -1.4,5.1 -3.6,8.9 z m -14.3,0 c -4.8,-3.3 -7.8,-6.7 -9.4,-8.9 h 17 c 0.3,1.7 1.2,4.9 3.2,8.9 z m -14,0 c -6.8,-2.6 -11.8,-6.4 -14.7,-8.9 H 432 c 0.9,1.5 3.4,5.1 8,8.9 z m -18.3,0 c -0.7,-0.8 -1.5,-1.6 -2.3,-2.5 -1.7,-1.9 -3.5,-4 -5.1,-6.4 h 6.6 c 1.3,1.4 5.5,5.4 11.9,8.9 z m 73.7,-28.4 c 4.2,6.1 6.6,13.3 7.5,16.5 h -17.7 c -0.2,-2.9 -0.9,-9.8 -2.4,-16.5 z m -15.6,0 c 1.5,6.5 2.2,13.5 2.4,16.5 h -17.7 c 0.2,-3.1 0.9,-10.1 2.4,-16.5 z m -18.3,16.6 h -17.7 c 0.9,-3.3 3.3,-10.4 7.5,-16.5 h 12.6 c -1.5,6.6 -2.1,13.6 -2.4,16.5 z m -21.3,-16.6 h 7.6 c -4.1,6.7 -6.3,13.8 -7,16.5 h -16.6 c 2,-3.5 7,-10.8 16,-16.5 z m 65.9,16.6 c -0.7,-2.8 -2.9,-9.9 -7,-16.5 h 7.6 c 8.9,5.7 14,13 16.1,16.5 z m -9.8,-19.6 h -45.9 c 7.2,-1.7 15,-2.8 23,-2.8 8,0 15.7,1.1 22.9,2.8 z m -85.3,16.9 c 4.9,-3.1 11.7,-6.9 19.8,-10.4 -5.9,5.5 -9.1,11 -10.2,13.1 h -8.2 c -0.2,-0.4 -0.4,-0.8 -0.7,-1.1 -0.2,-0.6 -0.5,-1.1 -0.7,-1.6 z m -9.8,-68.7 c 6.5,-15.7 4.3,-26.1 2.8,-30.5 h 47.7 c -27.7,27.2 -43.6,51.4 -47.1,72.1 -1.9,11.1 -0.1,19.9 3.1,27 v 0.1 c 0.8,1.8 1.6,3.4 2.6,4.9 0,0.1 0.1,0.1 0.1,0.2 1.7,2.8 3.6,5.2 5.5,7.4 0.1,0.1 0.2,0.3 0.3,0.4 0.5,0.6 1,1.1 1.4,1.6 H 305 c 47,-28.9 76.3,-56.9 87.2,-83.2 z m 124.3,83.2 h -11.6 c 6.4,-3.5 10.6,-7.5 11.9,-8.9 h 14.3 c -3.4,2.6 -9,6.5 -14.6,8.9 z" />
    <path
       inkscape:connector-curvature="0"
       style="fill:#96d7e3;fill-opacity:1"
       id="path10"
       d="m 360.8,167.6 h 23.9 c 0.8,0 1.5,-0.7 1.5,-1.5 0,-0.8 -0.7,-1.5 -1.5,-1.5 h -23.9 c -0.8,0 -1.5,0.7 -1.5,1.5 0,0.8 0.7,1.5 1.5,1.5 z m 9.8,-8.3 h 14.3 c 0.8,0 1.5,-0.7 1.5,-1.5 0,-0.8 -0.7,-1.5 -1.5,-1.5 h -14.3 c -0.8,0 -1.5,0.7 -1.5,1.5 0,0.8 0.6,1.5 1.5,1.5 z M 350.9,176 h 35.2 c 0.8,0 1.5,-0.7 1.5,-1.5 0,-0.8 -0.7,-1.5 -1.5,-1.5 h -35.2 c -0.8,0 -1.5,0.7 -1.5,1.5 0,0.8 0.7,1.5 1.5,1.5 z m 38.4,5.7 h -51 c -0.8,0 -1.5,0.7 -1.5,1.5 0,0.8 0.7,1.5 1.5,1.5 h 51 c 0.8,0 1.5,-0.7 1.5,-1.5 0,-0.8 -0.6,-1.5 -1.5,-1.5 z m 16.6,-93.1 h 20.7 c 0.8,0 1.5,-0.7 1.5,-1.5 0,-0.8 -0.7,-1.5 -1.5,-1.5 h -20.7 c -0.8,0 -1.5,0.7 -1.5,1.5 0,0.8 0.7,1.5 1.5,1.5 z m -0.2,8.6 h 13 c 0.8,0 1.5,-0.7 1.5,-1.5 0,-0.8 -0.7,-1.5 -1.5,-1.5 h -13 c -0.8,0 -1.5,0.7 -1.5,1.5 0,0.8 0.6,1.5 1.5,1.5 z m -2,8.6 h 7.6 c 0.8,0 1.5,-0.7 1.5,-1.5 0,-0.8 -0.7,-1.5 -1.5,-1.5 h -7.6 c -0.8,0 -1.5,0.7 -1.5,1.5 0,0.8 0.7,1.5 1.5,1.5 z M 294.3,-312.4 c -0.8,0 -1.5,0.7 -1.5,1.5 v 3.1 h -8.5 v -3.1 c 0,-0.8 -0.7,-1.5 -1.5,-1.5 -0.8,0 -1.5,0.7 -1.5,1.5 v 3.1 h -8.5 v -3.1 c 0,-0.8 -0.7,-1.5 -1.5,-1.5 -0.8,0 -1.5,0.7 -1.5,1.5 v 58.4 h -5.2 v -2.7 c 0,-0.8 -0.7,-1.5 -1.5,-1.5 -0.8,0 -1.5,0.7 -1.5,1.5 v 2.7 h -5.2 v -2.3 c 0,-0.8 -0.7,-1.5 -1.5,-1.5 -0.8,0 -1.5,0.7 -1.5,1.5 v 2.3 h -5.2 v -2.7 c 0,-0.8 -0.7,-1.5 -1.5,-1.5 -0.8,0 -1.5,0.7 -1.5,1.5 v 2.7 H 240 v -9.1 h 3 c 0.8,0 1.5,-0.7 1.5,-1.5 0,-0.8 -0.7,-1.5 -1.5,-1.5 h -3 v -3.8 c 0,-0.8 -0.7,-1.5 -1.5,-1.5 -0.8,0 -1.5,0.7 -1.5,1.5 v 3.8 h -3 c -0.8,0 -1.5,0.7 -1.5,1.5 0,0.8 0.7,1.5 1.5,1.5 h 3 v 9.1 h -5.2 v -2.7 c 0,-0.8 -0.7,-1.5 -1.5,-1.5 -0.8,0 -1.5,0.7 -1.5,1.5 v 2.7 h -5.2 v -2.3 c 0,-0.8 -0.7,-1.5 -1.5,-1.5 -0.8,0 -1.5,0.7 -1.5,1.5 v 2.3 h -5.2 v -2.7 c 0,-0.8 -0.7,-1.5 -1.5,-1.5 -0.8,0 -1.5,0.7 -1.5,1.5 v 2.7 h -5.2 v -58.4 c 0,-0.8 -0.7,-1.5 -1.5,-1.5 -0.8,0 -1.5,0.7 -1.5,1.5 v 3.1 h -8.5 v -3.1 c 0,-0.8 -0.7,-1.5 -1.5,-1.5 -0.8,0 -1.5,0.7 -1.5,1.5 v 3.1 H 184 v -3.1 c 0,-0.8 -0.7,-1.5 -1.5,-1.5 -0.8,0 -1.5,0.7 -1.5,1.5 v 115.1 c 0,0.8 0.7,1.5 1.5,1.5 h 111.9 c 0.8,0 1.5,-0.7 1.5,-1.5 v -115.1 c -0.1,-0.9 -0.7,-1.5 -1.6,-1.5 z m -110.3,7.6 h 19.9 v 107.6 H 184 Z m 22.9,55.2 h 63 v 52.3 h -6.7 v -14.5 c 0,-3.3 -2.7,-6 -6,-6 -3.3,0 -6,2.7 -6,6 v 14.5 h -6.7 v -14.5 c 0,-3.3 -2.7,-6 -6,-6 -3.3,0 -6,2.7 -6,6 v 14.5 h -6.7 v -14.5 c 0,-3.3 -2.7,-6 -6,-6 -3.3,0 -6,2.7 -6,6 v 14.5 h -6.7 v -52.3 z m 9.7,52.3 v -14.5 c 0,-1.7 1.4,-3 3,-3 1.6,0 3,1.4 3,3 v 14.5 z m 18.8,0 v -14.5 c 0,-1.7 1.4,-3 3,-3 1.6,0 3,1.4 3,3 v 14.5 z m 18.7,0 v -14.5 c 0,-1.7 1.4,-3 3,-3 1.7,0 3,1.4 3,3 v 14.5 z m 38.7,0 h -19.9 v -107.6 h 19.9 z" />
    <path
       inkscape:connector-curvature="0"
       style="fill:#96d7e3;fill-opacity:1"
       id="path12"
       d="m 197.1,-255.90001 c 0.8,0 1.5,-0.7 1.5,-1.5 v -11 c 0,-2.5 -2.1,-4.6 -4.6,-4.6 -2.5,0 -4.6,2.1 -4.6,4.6 v 11 c 0,0.8 0.7,1.5 1.5,1.5 z m -4.8,-12.5 c 0,-0.9 0.7,-1.6 1.6,-1.6 0.9,0 1.6,0.7 1.6,1.6 v 9.5 h -3.2 z m 4.8,40.2 c 0.8,0 1.5,-0.7 1.5,-1.5 v -11 c 0,-2.5 -2.1,-4.6 -4.6,-4.6 -2.5,0 -4.6,2.1 -4.6,4.6 v 11 c 0,0.8 0.7,1.5 1.5,1.5 z m -4.8,-12.5 c 0,-0.9 0.7,-1.6 1.6,-1.6 0.9,0 1.6,0.7 1.6,1.6 v 9.5 h -3.2 z m 24.2,12.5 h 6.2 c 0.8,0 1.5,-0.7 1.5,-1.5 v -11 c 0,-2.5 -2.1,-4.6 -4.6,-4.6 -2.5,0 -4.6,2.1 -4.6,4.6 v 11 c 0,0.8 0.7,1.5 1.5,1.5 z m 1.5,-12.5 c 0,-0.9 0.7,-1.6 1.6,-1.6 0.9,0 1.6,0.7 1.6,1.6 v 9.5 H 218 Z m 17.3,12.5 h 6.2 c 0.8,0 1.5,-0.7 1.5,-1.5 v -11 c 0,-2.5 -2.1,-4.6 -4.6,-4.6 -2.5,0 -4.6,2.1 -4.6,4.6 v 11 c 0,0.8 0.7,1.5 1.5,1.5 z m 1.5,-12.5 c 0,-0.9 0.7,-1.6 1.6,-1.6 0.9,0 1.6,0.7 1.6,1.6 v 9.5 h -3.2 z m 17.3,12.5 h 6.2 c 0.8,0 1.5,-0.7 1.5,-1.5 v -11 c 0,-2.5 -2.1,-4.6 -4.6,-4.6 -2.5,0 -4.6,2.1 -4.6,4.6 v 11 c 0,0.8 0.6,1.5 1.5,1.5 z m 1.5,-12.5 c 0,-0.9 0.7,-1.6 1.6,-1.6 0.9,0 1.6,0.7 1.6,1.6 v 9.5 h -3.2 z m 30.4,-15.2 c 0.8,0 1.5,-0.7 1.5,-1.5 v -11 c 0,-2.5 -2.1,-4.6 -4.6,-4.6 -2.5,0 -4.6,2.1 -4.6,4.6 v 11 c 0,0.8 0.7,1.5 1.5,1.5 z m -4.8,-12.5 c 0,-0.9 0.7,-1.6 1.6,-1.6 0.9,0 1.6,0.7 1.6,1.6 v 9.5 h -3.2 z m -90.4,-15.2 h 6.2 c 0.8,0 1.5,-0.7 1.5,-1.5 v -11 c 0,-2.5 -2.1,-4.6 -4.6,-4.6 -2.5,0 -4.6,2.1 -4.6,4.6 v 11 c 0,0.9 0.7,1.5 1.5,1.5 z m 1.5,-12.5 c 0,-0.9 0.7,-1.6 1.6,-1.6 0.9,0 1.6,0.7 1.6,1.6 v 9.5 h -3.2 z m 85.9,0 v 11 c 0,0.8 0.7,1.5 1.5,1.5 h 6.2 c 0.8,0 1.5,-0.7 1.5,-1.5 v -11 c 0,-2.5 -2.1,-4.6 -4.6,-4.6 -2.5,0 -4.6,2.1 -4.6,4.6 z m 6.3,0 v 9.5 h -3.2 v -9.5 c 0,-0.9 0.7,-1.6 1.6,-1.6 0.9,0 1.6,0.7 1.6,1.6 z m 1.5,67.9 c 0.8,0 1.5,-0.7 1.5,-1.5 v -11 c 0,-2.5 -2.1,-4.6 -4.6,-4.6 -2.5,0 -4.6,2.1 -4.6,4.6 v 11 c 0,0.8 0.7,1.5 1.5,1.5 z m -4.8,-12.5 c 0,-0.9 0.7,-1.6 1.6,-1.6 0.9,0 1.6,0.7 1.6,1.6 v 9.5 h -3.2 z m -81.1,-11.9 h -12.2 c -0.8,0 -1.5,0.7 -1.5,1.5 0,0.8 0.7,1.5 1.5,1.5 h 12.2 c 0.8,0 1.5,-0.7 1.5,-1.5 0,-0.8 -0.7,-1.5 -1.5,-1.5 z m 0,27.6 h -12.2 c -0.8,0 -1.5,0.7 -1.5,1.5 0,0.8 0.7,1.5 1.5,1.5 h 12.2 c 0.8,0 1.5,-0.7 1.5,-1.5 0,-0.8 -0.7,-1.5 -1.5,-1.5 z m 0,-55.2 h -12.2 c -0.8,0 -1.5,0.7 -1.5,1.5 0,0.8 0.7,1.5 1.5,1.5 h 12.2 c 0.8,0 1.5,-0.7 1.5,-1.5 0,-0.8 -0.7,-1.5 -1.5,-1.5 z m 88.9,27.6 h -12.2 c -0.8,0 -1.5,0.7 -1.5,1.5 0,0.8 0.7,1.5 1.5,1.5 H 289 c 0.8,0 1.5,-0.7 1.5,-1.5 0,-0.8 -0.7,-1.5 -1.5,-1.5 z m 0,27.6 h -12.2 c -0.8,0 -1.5,0.7 -1.5,1.5 0,0.8 0.7,1.5 1.5,1.5 H 289 c 0.8,0 1.5,-0.7 1.5,-1.5 0,-0.8 -0.7,-1.5 -1.5,-1.5 z m -13.7,-53.7 c 0,0.8 0.7,1.5 1.5,1.5 H 289 c 0.8,0 1.5,-0.7 1.5,-1.5 0,-0.8 -0.7,-1.5 -1.5,-1.5 h -12.2 c -0.9,0 -1.5,0.7 -1.5,1.5 z m -258.3,463.8 v 9.8 c 0,0.8 0.7,1.5 1.5,1.5 h 111.9 c 0.8,0 1.5,-0.7 1.5,-1.5 v -115 C 131.9,79.1 131.2,78.4 130.4,78.4 c -0.8,0 -1.5,0.7 -1.5,1.49999 v 3.1 h -8.5 v -3.1 C 120.4,79.1 119.7,78.4 118.9,78.4 c -0.8,0 -1.5,0.7 -1.5,1.49999 v 3.1 h -8.5 v -3.1 C 108.9,79.1 108.2,78.4 107.4,78.4 c -0.8,0 -1.5,0.7 -1.5,1.49999 v 58.4 h -5.2 v -2.7 c 0,-0.8 -0.7,-1.5 -1.5,-1.5 -0.8,0 -1.5,0.7 -1.5,1.5 v 2.7 h -5.2 v -2.3 c 0,-0.8 -0.7,-1.5 -1.5,-1.5 -0.8,0 -1.5,0.7 -1.5,1.5 v 2.3 h -5.2 v -2.7 c 0,-0.8 -0.7,-1.5 -1.5,-1.5 -0.8,0 -1.5,0.7 -1.5,1.5 v 2.7 H 76 v -9.1 h 3 c 0.8,0 1.5,-0.7 1.5,-1.5 0,-0.8 -0.7,-1.5 -1.5,-1.5 h -3 v -3.8 c 0,-0.8 -0.7,-1.5 -1.5,-1.5 -0.8,0 -1.5,0.7 -1.5,1.5 v 3.8 h -3 c -0.8,0 -1.5,0.7 -1.5,1.5 0,0.8 0.7,1.5 1.5,1.5 h 3 v 9.1 h -5.2 v -2.7 c 0,-0.8 -0.7,-1.5 -1.5,-1.5 -0.8,0 -1.5,0.7 -1.5,1.5 v 2.7 h -5.2 v -2.3 c 0,-0.8 -0.7,-1.5 -1.5,-1.5 -0.8,0 -1.5,0.7 -1.5,1.5 v 2.3 h -5.2 v -2.7 c 0,-0.8 -0.7,-1.5 -1.5,-1.5 -0.8,0 -1.5,0.7 -1.5,1.5 v 2.7 H 43 v -58.4 C 43,79.1 42.3,78.4 41.5,78.4 40.7,78.4 40,79.1 40,79.89999 v 3.1 h -8.5 v -3.1 C 31.5,79.1 30.8,78.4 30,78.4 c -0.8,0 -1.5,0.7 -1.5,1.49999 v 3.1 H 20 v -3.1 C 20,79.1 19.3,78.4 18.5,78.4 17.7,78.4 17,79.1 17,79.89999 v 84.9 l 3,1.9 v -80.7 h 20 v 107.6 H 20 v -9.2 z m 26,-43.9 h 63 v 52.3 h -6.7 v -14.5 c 0,-3.3 -2.7,-6 -6,-6 -3.3,0 -6,2.7 -6,6 v 14.5 h -6.7 v -14.5 c 0,-3.3 -2.7,-6 -6,-6 -3.3,0 -6,2.7 -6,6 v 14.5 h -6.7 v -14.5 c 0,-3.3 -2.7,-6 -6,-6 -3.3,0 -6,2.7 -6,6 v 14.5 H 43 Z m 9.7,52.3 v -14.5 c 0,-1.7 1.4,-3 3,-3 1.6,0 3,1.4 3,3 v 14.5 z m 18.7,0 v -14.5 c 0,-1.7 1.4,-3 3,-3 1.6,0 3,1.4 3,3 v 14.5 z m 18.8,0 v -14.5 c 0,-1.7 1.4,-3 3,-3 1.6,0 3,1.4 3,3 v 14.5 z m 38.7,0 H 109 v -107.5 h 19.9 z" />
    <path
       inkscape:connector-curvature="0"
       style="fill:#96d7e3;fill-opacity:1"
       id="path14"
       d="m 33.1,134.9 c 0.8,0 1.5,-0.7 1.5,-1.5 v -11 c 0,-2.5 -2.1,-4.6 -4.6,-4.6 -2.5,0 -4.6,2.1 -4.6,4.6 v 11 c 0,0.8 0.7,1.5 1.5,1.5 z m -4.7,-12.5 c 0,-0.9 0.7,-1.6 1.6,-1.6 0.9,0 1.6,0.7 1.6,1.6 v 9.5 h -3.2 z m 4.7,40.2 c 0.8,0 1.5,-0.7 1.5,-1.5 v -11 c 0,-2.5 -2.1,-4.6 -4.6,-4.6 -2.5,0 -4.6,2.1 -4.6,4.6 v 11 c 0,0.8 0.7,1.5 1.5,1.5 z m -4.7,-12.5 c 0,-0.9 0.7,-1.6 1.6,-1.6 0.9,0 1.6,0.7 1.6,1.6 v 9.5 h -3.2 z m 24.2,12.5 h 6.2 c 0.8,0 1.5,-0.7 1.5,-1.5 v -11 c 0,-2.5 -2.1,-4.6 -4.6,-4.6 -2.5,0 -4.6,2.1 -4.6,4.6 v 11 c 0,0.9 0.6,1.5 1.5,1.5 z m 1.5,-12.5 c 0,-0.9 0.7,-1.6 1.6,-1.6 0.9,0 1.6,0.7 1.6,1.6 v 9.5 h -3.2 z m 17.2,12.5 h 6.2 c 0.8,0 1.5,-0.7 1.5,-1.5 v -11 c 0,-2.5 -2.1,-4.6 -4.6,-4.6 -2.5,0 -4.6,2.1 -4.6,4.6 v 11 c 0,0.9 0.7,1.5 1.5,1.5 z m 1.5,-12.5 c 0,-0.9 0.7,-1.6 1.6,-1.6 0.9,0 1.6,0.7 1.6,1.6 v 9.5 h -3.2 z m 17.3,12.5 h 6.2 c 0.8,0 1.5,-0.7 1.5,-1.5 v -11 c 0,-2.5 -2.1,-4.6 -4.6,-4.6 -2.5,0 -4.6,2.1 -4.6,4.6 v 11 c 0,0.9 0.7,1.5 1.5,1.5 z m 1.5,-12.5 c 0,-0.9 0.7,-1.6 1.6,-1.6 0.9,0 1.6,0.7 1.6,1.6 v 9.5 H 91.6 Z M 122,134.9 c 0.8,0 1.5,-0.7 1.5,-1.5 v -11 c 0,-2.5 -2.1,-4.6 -4.6,-4.6 -2.5,0 -4.6,2.1 -4.6,4.6 v 11 c 0,0.8 0.7,1.5 1.5,1.5 z m -4.7,-12.5 c 0,-0.9 0.7,-1.6 1.6,-1.6 0.9,0 1.6,0.7 1.6,1.6 v 9.5 h -3.2 z M 26.9,107.2 h 6.2 c 0.8,0 1.5,-0.7 1.5,-1.5 V 94.8 c 0,-2.5 -2.1,-4.6 -4.6,-4.6 -2.5,0 -4.6,2.1 -4.6,4.6 v 11 c 0,0.8 0.7,1.4 1.5,1.4 z m 1.5,-12.4 c 0,-0.9 0.7,-1.6 1.6,-1.6 0.9,0 1.6,0.7 1.6,1.6 v 9.5 h -3.2 z m 85.9,0 v 11 c 0,0.8 0.7,1.5 1.5,1.5 h 6.2 c 0.8,0 1.5,-0.7 1.5,-1.5 v -11 c 0,-2.5 -2.1,-4.6 -4.6,-4.6 -2.5,0 -4.6,2 -4.6,4.6 z m 6.2,0 v 9.5 h -3.2 v -9.5 c 0,-0.9 0.7,-1.6 1.6,-1.6 0.9,0 1.6,0.7 1.6,1.6 z m 1.5,67.8 c 0.8,0 1.5,-0.7 1.5,-1.5 v -11 c 0,-2.5 -2.1,-4.6 -4.6,-4.6 -2.5,0 -4.6,2.1 -4.6,4.6 v 11 c 0,0.8 0.7,1.5 1.5,1.5 z m -4.7,-12.5 c 0,-0.9 0.7,-1.6 1.6,-1.6 0.9,0 1.6,0.7 1.6,1.6 v 9.5 h -3.2 z M 36.1,138.2 H 23.9 c -0.8,0 -1.5,0.7 -1.5,1.5 0,0.8 0.7,1.5 1.5,1.5 h 12.2 c 0.8,0 1.5,-0.7 1.5,-1.5 0,-0.8 -0.7,-1.5 -1.5,-1.5 z m 0,27.7 H 23.9 c -0.8,0 -1.5,0.7 -1.5,1.5 0,0.8 0.7,1.5 1.5,1.5 h 12.2 c 0.8,0 1.5,-0.7 1.5,-1.5 0,-0.8 -0.7,-1.5 -1.5,-1.5 z m 0,-55.3 H 23.9 c -0.8,0 -1.5,0.7 -1.5,1.5 0,0.8 0.7,1.5 1.5,1.5 h 12.2 c 0.8,0 1.5,-0.7 1.5,-1.5 0,-0.8 -0.7,-1.5 -1.5,-1.5 z m 88.9,27.6 h -12.2 c -0.8,0 -1.5,0.7 -1.5,1.5 0,0.8 0.7,1.5 1.5,1.5 H 125 c 0.8,0 1.5,-0.7 1.5,-1.5 0,-0.8 -0.6,-1.5 -1.5,-1.5 z m 0,27.7 h -12.2 c -0.8,0 -1.5,0.7 -1.5,1.5 0,0.8 0.7,1.5 1.5,1.5 H 125 c 0.8,0 1.5,-0.7 1.5,-1.5 0,-0.8 -0.6,-1.5 -1.5,-1.5 z m -13.7,-53.8 c 0,0.8 0.7,1.5 1.5,1.5 H 125 c 0.8,0 1.5,-0.7 1.5,-1.5 0,-0.8 -0.7,-1.5 -1.5,-1.5 h -12.2 c -0.8,0 -1.5,0.7 -1.5,1.5 z m -542.7,-306.4 c -0.4,0 -0.8,-0.1 -1,-0.4 -0.6,-0.6 -0.6,-1.5 0,-2.1 0.3,-0.3 25.7,-26.5 61.8,-52.4 33.4,-23.9 83,-52.5 129.8,-52.5 46.8,0 96.4,28.5 129.8,52.5 36.1,25.9 61.5,52.1 61.8,52.4 0.6,0.6 0.6,1.5 0,2.1 -0.6,0.6 -1.5,0.6 -2.1,0 -0.3,-0.3 -25.5,-26.3 -61.4,-52.1 -33,-23.7 -82,-51.9 -128,-51.9 -46,0 -95,28.2 -128,51.9 -35.9,25.7 -61.1,51.8 -61.4,52 -0.5,0.3 -0.9,0.5 -1.3,0.5 z" />
    <path
       inkscape:connector-curvature="0"
       style="fill:#96d7e3;fill-opacity:1"
       id="path16"
       d="m -235.6,-298.8 h -9.9 c -0.8,0 -1.5,-0.7 -1.5,-1.5 v -9.9 c 0,-0.8 0.7,-1.5 1.5,-1.5 h 9.9 c 0.8,0 1.5,0.7 1.5,1.5 v 9.9 c 0,0.9 -0.6,1.5 -1.5,1.5 z m -8.4,-3 h 6.9 v -6.9 h -6.9 z" />
    <path
       inkscape:connector-curvature="0"
       style="fill:#96d7e3;fill-opacity:1"
       id="path18"
       d="m -235.6,-308.7 h -9.9 c -0.8,0 -1.5,-0.7 -1.5,-1.5 v -9.9 c 0,-0.8 0.7,-1.5 1.5,-1.5 h 9.9 c 0.8,0 1.5,0.7 1.5,1.5 v 9.9 c 0,0.9 -0.6,1.5 -1.5,1.5 z m -8.4,-3 h 6.9 v -6.9 h -6.9 z" />
    <path
       inkscape:connector-curvature="0"
       style="fill:#96d7e3;fill-opacity:1"
       id="path20"
       d="m -235.6,-318.6 h -9.9 c -0.8,0 -1.5,-0.7 -1.5,-1.5 v -9.9 c 0,-0.8 0.7,-1.5 1.5,-1.5 h 9.9 c 0.8,0 1.5,0.7 1.5,1.5 v 9.9 c 0,0.9 -0.6,1.5 -1.5,1.5 z m -8.4,-3 h 6.9 v -6.9 h -6.9 z" />
    <path
       inkscape:connector-curvature="0"
       style="fill:#96d7e3;fill-opacity:1"
       id="path22"
       d="m -225.7,-318.6 h -9.9 c -0.8,0 -1.5,-0.7 -1.5,-1.5 v -9.9 c 0,-0.8 0.7,-1.5 1.5,-1.5 h 9.9 c 0.8,0 1.5,0.7 1.5,1.5 v 9.9 c 0,0.9 -0.6,1.5 -1.5,1.5 z m -8.4,-3 h 6.9 v -6.9 h -6.9 z m -11.4,3 h -9.9 c -0.8,0 -1.5,-0.7 -1.5,-1.5 v -9.9 c 0,-0.8 0.7,-1.5 1.5,-1.5 h 9.9 c 0.8,0 1.5,0.7 1.5,1.5 v 9.9 c 0,0.9 -0.6,1.5 -1.5,1.5 z m -8.4,-3 h 6.9 v -6.9 h -6.9 z" />
    <path
       inkscape:connector-curvature="0"
       style="fill:#96d7e3;fill-opacity:1"
       id="path24"
       d="m -235.6,-328.50001 h -9.9 c -0.8,0 -1.5,-0.7 -1.5,-1.5 v -9.9 c 0,-0.8 0.7,-1.5 1.5,-1.5 h 9.9 c 0.8,0 1.5,0.7 1.5,1.5 v 9.9 c 0,0.9 -0.6,1.5 -1.5,1.5 z m -8.4,-3 h 6.9 v -6.9 h -6.9 z m 637.1,435.4 c -29.3,-17.2 -64.2,-31.99997 -97.6,-31.99997 -46,0 -95,28.19997 -128,51.89997 -14.3,10.3 -27,20.6 -37,29.3 l -0.2,-3.8 c 9.8,-8.4 21.8,-18.2 35.4,-27.9 33.4,-23.9 83,-52.49996 129.8,-52.49996 33.5,0 68.5,14.69996 98,31.79996 z m 21.6,10.1 c 3.7,2.5 7.2,4.9 10.6,7.4 18,12.9 33.4,26 44.3,35.8 l -3.7,0.7 c -10.7,-9.6 -25.4,-21.9 -42.4,-34.1 -3.2,-2.3 -6.6,-4.7 -10.1,-7 z" />
    <path
       inkscape:connector-curvature="0"
       style="fill:#96d7e3;fill-opacity:1"
       id="path26"
       d="m 300.8,71.90002 h -9.9 c -0.8,0 -1.5,-0.7 -1.5,-1.5 v -9.89997 c 0,-0.79999 0.7,-1.49999 1.5,-1.49999 h 9.9 c 0.8,0 1.5,0.7 1.5,1.49999 v 9.89997 c 0,0.8 -0.6,1.5 -1.5,1.5 z m -8.4,-2.99999 h 6.9 v -6.89998 h -6.9 z" />
    <path
       inkscape:connector-curvature="0"
       style="fill:#96d7e3;fill-opacity:1"
       id="path28"
       d="m 300.8,62.00005 h -9.9 c -0.8,0 -1.5,-0.7 -1.5,-1.5 v -9.89997 c 0,-0.8 0.7,-1.49999 1.5,-1.49999 h 9.9 c 0.8,0 1.5,0.69999 1.5,1.49999 v 9.89997 c 0,0.8 -0.6,1.5 -1.5,1.5 z m -8.4,-2.99999 h 6.9 v -6.89998 h -6.9 z" />
    <path
       inkscape:connector-curvature="0"
       style="fill:#96d7e3;fill-opacity:1"
       id="path30"
       d="m 300.8,52.10008 h -9.9 c -0.8,0 -1.5,-0.7 -1.5,-1.5 v -9.89997 c 0,-0.8 0.7,-1.5 1.5,-1.5 h 9.9 c 0.8,0 1.5,0.7 1.5,1.5 v 9.89997 c 0,0.8 -0.6,1.5 -1.5,1.5 z m -8.4,-2.99999 h 6.9 v -6.89998 h -6.9 z" />
    <path
       inkscape:connector-curvature="0"
       style="fill:#96d7e3;fill-opacity:1"
       id="path32"
       d="m 310.7,52.10008 h -9.9 c -0.8,0 -1.5,-0.7 -1.5,-1.5 v -9.89997 c 0,-0.8 0.7,-1.5 1.5,-1.5 h 9.9 c 0.8,0 1.5,0.7 1.5,1.5 v 9.89997 c 0,0.8 -0.6,1.5 -1.5,1.5 z m -8.4,-2.99999 h 6.9 v -6.89998 h -6.9 z m -11.4,2.99999 H 281 c -0.8,0 -1.5,-0.7 -1.5,-1.5 v -9.89997 c 0,-0.8 0.7,-1.5 1.5,-1.5 h 9.9 c 0.8,0 1.5,0.7 1.5,1.5 v 9.89997 c 0,0.8 -0.6,1.5 -1.5,1.5 z m -8.4,-2.99999 h 6.9 v -6.89998 h -6.9 z" />
    <path
       inkscape:connector-curvature="0"
       style="fill:#96d7e3;fill-opacity:1"
       id="path34"
       d="m 300.8,42.20011 h -9.9 c -0.8,0 -1.5,-0.7 -1.5,-1.5 v -9.9 c 0,-0.8 0.7,-1.5 1.5,-1.5 h 9.9 c 0.8,0 1.5,0.7 1.5,1.5 v 9.9 c 0,0.8 -0.6,1.5 -1.5,1.5 z m -8.4,-3 h 6.9 v -6.9 h -6.9 z m 76.7,-255.10012 c 0,-7 -5.7,-12.7 -12.7,-12.7 -7,0 -12.7,5.7 -12.7,12.7 0,6.5 4.9,11.8 11.2,12.6 v 7.5 c 0,0.8 0.7,1.5 1.5,1.5 0.8,0 1.5,-0.7 1.5,-1.5 v -7.5 c 6.3,-0.8 11.2,-6.1 11.2,-12.6 z m -11.2,9.6 v -7.1 l 3.6,-3.6 c 0.6,-0.6 0.6,-1.5 0,-2.1 -0.6,-0.6 -1.5,-0.6 -2.1,0 l -1.5,1.5 v -1.7 c 0,-0.8 -0.7,-1.5 -1.5,-1.5 -0.8,0 -1.5,0.7 -1.5,1.5 v 6.5 l -1.6,-1.6 c -0.6,-0.6 -1.5,-0.6 -2.1,0 -0.6,0.6 -0.6,1.5 0,2.1 l 3.7,3.7 v 2.4 c -4.6,-0.7 -8.2,-4.7 -8.2,-9.6 0,-5.3 4.3,-9.7 9.7,-9.7 5.3,0 9.7,4.3 9.7,9.7 0,4.7 -3.5,8.7 -8.2,9.5 z m -128.4,381.3 c 0,-7 -5.7,-12.7 -12.7,-12.7 -7,0 -12.7,5.7 -12.7,12.7 0,6.5 4.9,11.8 11.2,12.6 v 7.5 c 0,0.8 0.7,1.5 1.5,1.5 0.8,0 1.5,-0.7 1.5,-1.5 v -7.5 c 6.3,-0.8 11.2,-6.1 11.2,-12.6 z m -11.2,9.5 v -7.1 l 3.6,-3.6 c 0.6,-0.6 0.6,-1.5 0,-2.1 -0.6,-0.6 -1.5,-0.6 -2.1,0 l -1.5,1.5 v -1.7 c 0,-0.8 -0.7,-1.5 -1.5,-1.5 -0.8,0 -1.5,0.7 -1.5,1.5 v 6.5 l -1.6,-1.6 c -0.6,-0.6 -1.5,-0.6 -2.1,0 -0.6,0.6 -0.6,1.5 0,2.1 l 3.7,3.7 v 2.4 c -4.6,-0.7 -8.2,-4.7 -8.2,-9.6 0,-5.3 4.3,-9.7 9.7,-9.7 5.3,0 9.7,4.3 9.7,9.7 0,4.8 -3.6,8.8 -8.2,9.5 z m 336.2,-9.5 c 0,-7 -5.7,-12.7 -12.7,-12.7 -7,0 -12.7,5.7 -12.7,12.7 0,6.5 4.9,11.8 11.2,12.6 v 7.5 c 0,0.8 0.7,1.5 1.5,1.5 0.8,0 1.5,-0.7 1.5,-1.5 v -7.5 c 6.3,-0.8 11.2,-6.1 11.2,-12.6 z m -11.2,9.5 v -7.1 l 3.6,-3.6 c 0.6,-0.6 0.6,-1.5 0,-2.1 -0.6,-0.6 -1.5,-0.6 -2.1,0 l -1.5,1.5 v -1.7 c 0,-0.8 -0.7,-1.5 -1.5,-1.5 -0.8,0 -1.5,0.7 -1.5,1.5 v 6.5 l -1.6,-1.6 c -0.6,-0.6 -1.5,-0.6 -2.1,0 -0.6,0.6 -0.6,1.5 0,2.1 l 3.7,3.7 v 2.4 c -4.6,-0.7 -8.2,-4.7 -8.2,-9.6 0,-5.3 4.3,-9.7 9.7,-9.7 5.3,0 9.7,4.3 9.7,9.7 0,4.8 -3.6,8.8 -8.2,9.5 z m -517.9,-9.5 c 0,-7 -5.7,-12.7 -12.7,-12.7 -7,0 -12.7,5.7 -12.7,12.7 0,6.5 4.9,11.8 11.2,12.6 v 7.5 c 0,0.8 0.7,1.5 1.5,1.5 0.8,0 1.5,-0.7 1.5,-1.5 v -7.5 c 6.3,-0.8 11.2,-6.1 11.2,-12.6 z m -11.2,9.5 v -7.1 l 3.6,-3.6 c 0.6,-0.6 0.6,-1.5 0,-2.1 -0.6,-0.6 -1.5,-0.6 -2.1,0 l -1.5,1.5 v -1.7 c 0,-0.8 -0.7,-1.5 -1.5,-1.5 -0.8,0 -1.5,0.7 -1.5,1.5 v 6.5 l -1.6,-1.6 c -0.6,-0.6 -1.5,-0.6 -2.1,0 -0.6,0.6 -0.6,1.5 0,2.1 l 3.7,3.7 v 2.4 c -4.6,-0.8 -8.2,-4.8 -8.2,-9.6 0,-5.3 4.3,-9.7 9.7,-9.7 5.3,0 9.7,4.3 9.7,9.7 0,4.8 -3.6,8.8 -8.2,9.5 z m 819.7,-422.1 c -0.5,0 -0.9,0 -1.3,0.1 h -0.3 c -0.4,0 -0.9,0.1 -1.3,0.2 -0.5,0.1 -0.9,0.2 -1.4,0.3 h -0.1 c -0.5,0.1 -0.9,0.3 -1.4,0.5 -3.7,-6.2 -10.3,-10 -17.6,-10 -11.3,0 -20.5,9.2 -20.5,20.5 0,11.3 9.2,20.5 20.5,20.5 h 23.4 c 8.8,0 16,-7.2 16,-16 0,-8.8 -7.2,-16.1 -16,-16.1 z m 0,29.1 h -23.4 c -9.6,0 -17.5,-7.8 -17.5,-17.5 0,-9.7 7.8,-17.5 17.5,-17.5 6.1,0 11.7,3.2 14.9,8.4 -1.9,1.2 -3.5,2.7 -4.8,4.6 -0.5,0.7 -0.3,1.6 0.4,2.1 0.7,0.5 1.6,0.3 2.1,-0.4 1.3,-1.9 3.1,-3.4 5.1,-4.4 0.4,-0.2 0.8,-0.4 1.3,-0.5 0.1,0 0.3,-0.1 0.4,-0.1 0.3,-0.1 0.7,-0.2 1,-0.3 0.3,-0.1 0.6,-0.1 0.9,-0.2 0.2,0 0.4,-0.1 0.6,-0.1 0.5,-0.1 1,-0.1 1.6,-0.1 7.2,0 13,5.9 13,13 -0.1,7.2 -5.9,13 -13.1,13 z m -35.1,-84 h 29.1 c 8.3,0 15.1,-6.8 15.1,-15.1 0,-8.3 -6.8,-15.1 -15.1,-15.1 -4.8,0 -9.2,2.2 -12,6 -0.4,-0.2 -0.9,-0.4 -1.3,-0.6 h -0.1 c -0.4,-0.1 -0.8,-0.3 -1.3,-0.4 h -0.1 c -0.4,-0.1 -0.9,-0.2 -1.3,-0.2 h -0.3 c -0.4,0 -0.9,-0.1 -1.3,-0.1 -4.5,0 -8.6,2.3 -10.9,6.2 H 799 c -0.7,0 -1.3,0.1 -1.9,0.2 -4.4,0.9 -7.7,4.8 -7.7,9.5 -0.3,5.3 4,9.6 9.4,9.6 z m 0,-16.4 h 0.5 c 0.1,0 0.3,0 0.5,0.1 1.4,0.2 2.7,0.9 3.7,1.9 0.6,0.6 1.5,0.6 2.1,0 0.6,-0.6 0.6,-1.5 0,-2.1 -1,-1 -2.1,-1.7 -3.3,-2.2 1.8,-2.4 4.6,-3.8 7.7,-3.8 0.5,0 1,0 1.4,0.1 0.4,0.1 0.8,0.2 1.1,0.3 0.1,0 0.2,0 0.3,0.1 0.9,0.3 1.8,0.7 2.6,1.2 1.6,1 2.8,2.5 3.6,4.3 0.2,0.6 0.8,0.9 1.4,0.9 0.2,0 0.4,0 0.6,-0.1 0.8,-0.3 1.1,-1.2 0.8,-2 -0.8,-1.9 -2,-3.5 -3.5,-4.7 2.3,-2.9 5.7,-4.7 9.5,-4.7 6.7,0 12.1,5.4 12.1,12.1 0,6.7 -5.4,12.1 -12.1,12.1 h -29.1 c -3.7,0 -6.7,-3 -6.7,-6.7 0,-3.5 2.6,-6.3 6,-6.7 0.3,0 0.5,-0.1 0.8,-0.1 z m -72.2,94.8 h -4.8 v -1.9 c 0,-0.8 -0.7,-1.5 -1.5,-1.5 -0.8,0 -1.5,0.7 -1.5,1.5 v 20.1 c 0,0.8 0.7,1.5 1.5,1.5 0.8,0 1.5,-0.7 1.5,-1.5 v -7.7 h 4.8 c 0.8,0 1.5,-0.7 1.5,-1.5 v -7.5 c 0,-0.8 -0.6,-1.5 -1.5,-1.5 z m -1.5,7.6 h -3.3 v -4.5 h 3.3 z m -452.9,383.3 h -4.8 v -1.9 c 0,-0.8 -0.7,-1.5 -1.5,-1.5 -0.8,0 -1.5,0.7 -1.5,1.5 v 20.1 c 0,0.8 0.7,1.5 1.5,1.5 0.8,0 1.5,-0.7 1.5,-1.5 v -7.7 h 4.8 c 0.8,0 1.5,-0.7 1.5,-1.5 v -7.5 c 0,-0.8 -0.7,-1.5 -1.5,-1.5 z m -1.5,7.5 h -3.3 v -4.5 h 3.3 z m -831,-431.7 c -6.8,-1.5 -13.6,-2.9 -20.5,-4.2 v -59.9 c 5.4,5.2 11.8,10.7 19,16.2 0.3,0.2 0.6,0.3 0.9,0.3 0.5,0 0.9,-0.2 1.2,-0.6 0.5,-0.7 0.4,-1.6 -0.3,-2.1 -28.4,-21.5 -42.7,-43.6 -42.8,-43.8 l -0.1,-0.1 c 0,0 0,-0.1 -0.1,-0.1 l -0.1,-0.1 c 0,0 -0.1,0 -0.1,-0.1 l -0.1,-0.1 h -1.3 l -0.1,0.1 c 0,0 -0.1,0 -0.1,0.1 -0.2,0.2 -8,8.8 -21.6,17.9 -15.7,10.6 -39.1,21.9 -67.3,21.9 -48.8,0 -83.4,-34.1 -88.3,-39.2 -0.1,-0.4 -0.4,-0.8 -0.9,-1 -0.2,-0.1 -0.5,-0.1 -0.7,-0.1 h -0.8 c -0.1,0 -0.1,0.1 -0.2,0.1 l -0.1,0.1 h -0.1 l -0.1,0.1 -0.1,0.1 c -0.1,0.2 -14.4,22.3 -42.8,43.8 -0.7,0.5 -0.8,1.4 -0.3,2.1 0.3,0.4 0.7,0.6 1.2,0.6 0.3,0 0.6,-0.1 0.9,-0.3 7.3,-5.5 13.6,-11 19,-16.2 v 59.9 c -6.9,1.3 -13.7,2.7 -20.5,4.2 -0.8,0.2 -1.3,1 -1.1,1.8 0.2,0.7 0.8,1.2 1.5,1.2 h 0.3 c 11.9,-2.7 23.9,-5 36,-6.9 l -3.8,24.5 c -2.5,-1.4 -5.3,-2.7 -9,-2.7 -4.2,0 -7.1,1.7 -10,3.3 -3.1,1.8 -6.3,3.6 -11.7,3.6 -0.8,0 -1.5,0.7 -1.5,1.5 0,0.8 0.7,1.5 1.5,1.5 6.2,0 9.9,-2.1 13.2,-4 2.7,-1.6 5,-2.9 8.5,-2.9 3.4,0 5.8,1.4 8.5,2.9 0.3,0.1 0.5,0.3 0.8,0.5 3.1,1.8 6.7,3.6 12.3,3.6 3.6,0 6.3,-0.7 8.6,-1.7 1.7,-0.7 3.1,-1.5 4.5,-2.3 2.7,-1.6 5,-2.9 8.5,-2.9 3.4,0 5.8,1.4 8.5,2.9 3.3,1.9 7,4 13.1,4 6.2,0 9.9,-2.1 13.2,-4 2.7,-1.6 5,-2.9 8.5,-2.9 3.4,0 5.8,1.4 8.5,2.9 3.3,1.9 7,4 13.1,4 6.2,0 9.9,-2.1 13.2,-4 2.7,-1.6 5,-2.9 8.5,-2.9 3.4,0 5.8,1.4 8.5,2.9 3.3,1.9 7,4 13.1,4 6.2,0 9.9,-2.1 13.2,-4 2.7,-1.6 5,-2.9 8.5,-2.9 3.4,0 5.8,1.4 8.5,2.9 2.2,1.3 4.7,2.6 7.9,3.4 0.1,0 0.2,0.1 0.3,0.1 h 0.1 c 1.4,0.3 3,0.5 4.8,0.5 6.2,0 9.9,-2.1 13.2,-4 2.7,-1.6 5,-2.9 8.5,-2.9 3.4,0 5.8,1.4 8.5,2.9 3.3,1.9 7,4 13.1,4 0.8,0 1.5,-0.7 1.5,-1.5 0,-0.8 -0.7,-1.5 -1.5,-1.5 -5.3,0 -8.5,-1.8 -11.6,-3.6 -2.8,-1.6 -5.8,-3.3 -10,-3.3 -2.1,0 -4,0.4 -5.6,1.1 l -3.5,-22.9 c 12,1.9 24,4.2 35.8,6.9 h 0.3 c 0.7,0 1.3,-0.5 1.5,-1.2 -0.3,-0.5 -0.8,-1.3 -1.6,-1.5 z m -37.7,-7.2 c -0.2,-0.1 -0.4,-0.1 -0.6,-0.1 -0.3,0 -0.5,-0.1 -0.8,-0.1 l 15.7,-29.2 v 31.9 c -4.8,-0.9 -9.5,-1.7 -14.3,-2.5 z m -26.3,-3.6 v -25.7 l 15.4,27.6 h -0.1 c -5.1,-0.7 -10.2,-1.3 -15.3,-1.9 z m -69.7,-4 h -7.2 l 7.2,-15.1 7.2,15.1 c -2.4,0.1 -4.8,0 -7.2,0 z m -84.9,6 c -0.1,0 -0.1,0 0,0 l 15.3,-27.7 v 25.7 c -5.1,0.6 -10.2,1.2 -15.3,2 z m 84.9,-42.6 c 2.4,0 4.8,-0.1 7.1,-0.2 l -7.1,14.8 -7.1,-14.9 c 2.4,0.2 4.7,0.3 7.1,0.3 z m 69.8,9 18.7,-43.6 v 77.2 z m 21.7,-43.5 18.4,43.5 -18.4,34.2 z m -21.8,36.3 v -24.7 c 6.9,-4.7 12.3,-9.3 16,-12.6 z m -3,35.3 -16,-23.5 16,-31.1 z m -16.3,-29.6 v -19.3 c 5,-2.4 9.7,-5 13.9,-7.6 z m -3,25.3 -7.6,-17.6 7.6,-19.7 z m -9.3,-21.6 -6.8,-15.8 c 5.2,-1.5 10.2,-3.4 14.8,-5.4 z m -19.5,2 -6.7,-13.9 c 5.1,-0.6 10,-1.5 14.7,-2.6 z m 9.3,-12.2 v 31.3 l -7.6,-15.7 z m -19.8,3.7 v 26.8 l -6.4,-13.4 z m -9.7,13.4 -6.4,13.5 v -26.8 z m -16.9,-4.9 -8,-16.5 c 4.7,1.2 9.6,2.1 14.7,2.6 z m -1.7,3.4 -7.6,15.7 v -31.3 z m -27.1,-21.2 7.6,19.7 -7.6,17.6 z m 9.2,15.8 -8.1,-21.1 c 4.7,2 9.6,3.9 14.8,5.4 z m -12.2,-3.7 -13.9,-26.9 c 4.2,2.6 8.8,5.2 13.9,7.6 z m -16.3,-25 16,31.1 -16,23.5 z m -3,19.3 -16,-37.3 c 3.7,3.3 9.1,7.9 16,12.6 z m -18.9,40.8 v -77.2 l 18.7,43.6 z m -3,0.6 -18.4,-34.2 18.4,-43 z m 41.2,-24.6 v 20.2 c -4.9,0.4 -9.8,0.9 -14.7,1.4 z m 19.5,-16.8 v 35.6 c -5.2,0.3 -10.5,0.6 -15.7,1 z m 19.8,2.8 v 32.1 c -5.3,0.1 -10.6,0.3 -15.8,0.5 z m 22.1,32.2 v -32.2 l 15.8,32.6 c -5.3,-0.2 -10.5,-0.3 -15.8,-0.4 z m 19.8,-35 15.7,36.6 c -5.2,-0.4 -10.5,-0.7 -15.7,-1 z m 19.5,36.9 v -20.1 l 14.7,21.6 c -4.9,-0.6 -9.8,-1.1 -14.7,-1.5 z m 59.9,-54.3 v 17.7 l -14,-33.2 c 3.4,4.3 8.1,9.6 14,15.5 z m -206,-16 -14.5,33.8 v -17.8 c 6.1,-6.1 11,-11.7 14.5,-16 z m -14.5,46.4 15.7,29.2 c -0.3,0 -0.5,0.1 -0.8,0.1 -0.1,0 -0.3,0 -0.4,0.1 -4.9,0.8 -9.7,1.6 -14.5,2.5 z m 24.1,31 0.8,5.6 h -4.7 c -0.8,0 -1.5,0.7 -1.5,1.5 0,0.8 0.7,1.5 1.5,1.5 h 5.2 l 1.8,12.2 h -7.9 c -0.8,0 -1.5,0.7 -1.5,1.5 0,0.8 0.7,1.5 1.5,1.5 h 8.3 l 0.8,5.5 c -1.8,0.6 -3.9,1.1 -6.5,1.1 -4.3,0 -7.2,-1.2 -9.9,-2.6 l 1.7,-10.8 h 6.4 c 0.8,0 1.5,-0.7 1.5,-1.5 0,-0.8 -0.7,-1.5 -1.5,-1.5 h -5.9 l 2,-12.8 c 2.7,-0.5 5.3,-0.9 7.9,-1.2 z m 149.2,23.4 c -4.2,0 -7.1,1.7 -10,3.3 -3.1,1.8 -6.3,3.6 -11.7,3.6 -5.3,0 -8.5,-1.8 -11.6,-3.6 -2.8,-1.6 -5.8,-3.3 -10,-3.3 -4.2,0 -7.1,1.7 -10,3.3 -3.1,1.8 -6.3,3.6 -11.7,3.6 -5.3,0 -8.5,-1.8 -11.6,-3.6 -2.8,-1.6 -5.8,-3.3 -10,-3.3 -4.2,0 -7.1,1.7 -10,3.3 -3.1,1.8 -6.3,3.6 -11.7,3.6 -5.3,0 -8.5,-1.8 -11.6,-3.6 -2.8,-1.6 -5.8,-3.3 -10,-3.3 -4.2,0 -7.1,1.7 -10,3.3 -0.8,0.4 -1.5,0.9 -2.3,1.3 l -4.3,-28.5 c 27.5,-3.8 55.3,-5.7 83.2,-5.7 27.9,0 55.8,1.9 83.3,5.7 l -4.5,29.9 c -2.2,-0.7 -3.9,-1.7 -5.7,-2.7 -2.6,-1.6 -5.6,-3.3 -9.8,-3.3 z m 33,-9.5 h -5.9 c -0.8,0 -1.5,0.7 -1.5,1.5 0,0.8 0.7,1.5 1.5,1.5 h 6.4 l 1.4,8.9 -1.5,0.9 c -3.1,1.8 -6.3,3.6 -11.7,3.6 -1.1,0 -2,-0.1 -3,-0.2 l 1,-6.4 h 8.3 c 0.8,0 1.5,-0.7 1.5,-1.5 0,-0.8 -0.7,-1.5 -1.5,-1.5 h -7.9 l 1.8,-12.2 h 5.2 c 0.8,0 1.5,-0.7 1.5,-1.5 0,-0.8 -0.7,-1.5 -1.5,-1.5 h -4.7 l 0.8,-5.6 7.8,1.2 z m -11.4,41.3 c -5.3,0 -8.5,-1.8 -11.6,-3.6 -2.8,-1.6 -5.8,-3.3 -10,-3.3 -4.2,0 -7.1,1.7 -10,3.3 -3.1,1.8 -6.3,3.6 -11.7,3.6 -5.3,0 -8.5,-1.8 -11.6,-3.6 -2.8,-1.6 -5.8,-3.3 -10,-3.3 -4.2,0 -7.1,1.7 -10,3.3 -3.1,1.8 -6.3,3.6 -11.7,3.6 -5.3,0 -8.5,-1.8 -11.6,-3.6 -2.8,-1.6 -5.8,-3.3 -10,-3.3 -4.2,0 -7.1,1.7 -10,3.3 -3.1,1.8 -6.3,3.6 -11.7,3.6 -5.3,0 -8.5,-1.8 -11.6,-3.6 -2.8,-1.6 -5.8,-3.3 -10,-3.3 -4.2,0 -7.1,1.7 -10,3.3 -3.1,1.8 -6.3,3.6 -11.7,3.6 -0.8,0 -1.5,0.7 -1.5,1.5 0,0.8 0.7,1.5 1.5,1.5 6.2,0 9.9,-2.1 13.2,-4 2.7,-1.6 5,-2.9 8.5,-2.9 3.4,0 5.8,1.4 8.5,2.9 3.3,1.9 7,4 13.1,4 6.2,0 9.9,-2.1 13.2,-4 2.7,-1.6 5,-2.9 8.5,-2.9 3.4,0 5.8,1.4 8.5,2.9 3.3,1.9 7,4 13.1,4 6.2,0 9.9,-2.1 13.2,-4 2.7,-1.6 5,-2.9 8.5,-2.9 3.4,0 5.8,1.4 8.5,2.9 3.3,1.9 7,4 13.1,4 6.2,0 9.9,-2.1 13.2,-4 2.7,-1.6 5,-2.9 8.5,-2.9 3.4,0 5.8,1.4 8.5,2.9 3.3,1.9 7,4 13.1,4 0.8,0 1.5,-0.7 1.5,-1.5 0,-0.8 -0.7,-1.5 -1.5,-1.5 z" />
    <path
       inkscape:connector-curvature="0"
       style="fill:#96d7e3;fill-opacity:1"
       id="path36"
       d="m 374.4,108.7 v 17.7 l -14,-33.2 c 3.4,4.3 8.1,9.7 14,15.5 z m -40.6,-7.3 c 6.9,-4.7 12.3,-9.3 16,-12.6 l -16,37.3 z M 194.5,165 c -5.1,0.6 -10.2,1.2 -15.3,1.9 h -0.1 l 15.4,-27.7 z m 19.3,-1.9 c -4.9,0.4 -9.8,0.9 -14.7,1.4 l 14.7,-21.6 z M 264.2,161 H 257 l 7.2,-15.1 7.2,15.1 z m 66.6,0.4 -16,-23.5 16,-31.1 z m -16.3,-48.9 c 5,-2.4 9.7,-5 13.9,-7.6 l -13.9,26.9 z m 0,30.4 14.7,21.6 c -4.9,-0.5 -9.8,-1 -14.7,-1.4 z m -3,14.2 -7.5,-17.6 7.5,-19.7 z m -1.1,-42.7 -8.1,21.1 -6.8,-15.8 c 5.3,-1.4 10.2,-3.3 14.9,-5.3 z m -15.4,11.8 15.7,36.6 c -5.2,-0.4 -10.5,-0.7 -15.7,-1 z m -3,30.5 -7.6,-15.7 7.6,-15.6 z m -1.3,-35.6 -8,16.5 -6.7,-13.9 c 5.1,-0.6 10,-1.5 14.7,-2.6 z m -15.5,7.9 15.8,32.6 c -5.3,-0.2 -10.6,-0.4 -15.8,-0.5 z m -3,26.9 -6.4,-13.4 6.4,-13.4 z m -8,-31.5 c 2.4,0 4.8,-0.1 7.1,-0.2 l -7.1,14.9 -7.1,-14.9 c 2.3,0.1 4.7,0.2 7.1,0.2 z m -8.1,4.7 6.4,13.4 -6.4,13.4 z m -3,32 c -5.3,0.1 -10.6,0.2 -15.8,0.5 L 253.1,129 Z m -0.8,-37.4 -6.7,13.9 -8,-16.5 c 4.7,1.1 9.6,2 14.7,2.6 z m -16,1.7 7.6,15.6 -7.6,15.7 z m -3,36.4 c -5.2,0.3 -10.5,0.6 -15.7,1 l 15.7,-36.6 z m -0.5,-42 -6.8,15.8 -8.1,-21.1 c 4.7,1.9 9.7,3.8 14.9,5.3 z m -16,0 7.6,19.7 -7.6,17.6 z m -3,-7.3 v 19.3 l -13.9,-26.9 c 4.2,2.6 8.9,5.2 13.9,7.6 z m -16.3,-5.7 16,31.1 -16,23.5 z m -3,-5.4 v 24.7 l -16,-37.3 c 3.7,3.4 9.1,7.9 16,12.6 z m -18.8,-11.6 18.7,43.6 -18.7,33.6 z m -21.8,18.9 c 6.1,-6.1 11,-11.6 14.5,-16 l -14.5,33.8 z m 18.8,-18.3 v 77.2 L 154.3,133.4 Z M 153.9,171 v -31.8 l 15.7,29.2 c -0.3,0 -0.5,0.1 -0.8,0.1 -0.1,0 -0.3,0 -0.4,0.1 -4.8,0.7 -9.6,1.5 -14.5,2.4 z m 30.9,23.8 -3.8,-25.1 c 27.5,-3.8 55.3,-5.7 83.2,-5.7 14,0 27.9,0.5 41.8,1.4 10.3,0.7 20.5,1.7 30.8,2.9 1.4,0.2 2.9,0.3 4.3,0.5 1.1,-0.9 2.2,-1.7 3.3,-2.6 -1.4,-0.2 -2.8,-0.4 -4.2,-0.5 -2.1,-0.3 -4.2,-0.5 -6.3,-0.8 v -25.7 l 12.1,21.8 1.5,2.7 c 0.8,-0.7 1.6,-1.3 2.3,-1.9 l -1.5,-2.7 -14.3,-25.7 18.7,-43.6 v 69.6 c 1,-0.9 2,-1.7 3,-2.6 V 89.9 l 18.4,43.5 -0.3,0.5 -6.2,11.6 c 3.6,-3.7 6.9,-7.4 9.8,-11.1 v -22.8 c 2.3,2.2 4.7,4.4 7.4,6.7 0.8,0.7 1.6,1.4 2.4,2 l 1.5,-2.7 -2.4,-2.1 C 365.9,97.6 355.6,81.7 355.5,81.5 l -0.1,-0.1 c 0,0 0,-0.1 -0.1,-0.1 l -0.1,-0.1 c 0,0 -0.1,0 -0.1,-0.1 0,0 -0.1,0 -0.1,-0.1 h -0.4 c -0.1,0 0,0 0,0 h -1 c 0,0 -0.1,0 -0.1,0.1 0,0 -0.1,0 -0.1,0.1 -0.2,0.2 -8,8.8 -21.6,17.9 -15.7,10.6 -39.1,21.9 -67.3,21.9 -24.4,0 -45.3,-8.5 -60.6,-17.7 -15.4,-9.2 -25.2,-19 -27.7,-21.5 -0.1,-0.4 -0.4,-0.8 -0.9,-1 -0.2,-0.1 -0.5,-0.1 -0.7,-0.1 h -0.8 c -0.1,0 -0.1,0.1 -0.2,0.1 0,0 -0.1,0 -0.1,0.1 0,0 0,0.1 -0.1,0.1 l -0.1,0.1 c -0.1,0.1 -3.7,5.7 -10.8,13.9 -7.1,8.2 -17.8,19.1 -32,29.9 -0.7,0.5 -0.8,1.4 -0.3,2.1 0.3,0.4 0.7,0.6 1.2,0.6 0.3,0 0.6,-0.1 0.9,-0.3 7.2,-5.5 13.6,-11 19,-16.2 V 171 c -6.8,1.3 -13.6,2.7 -20.4,4.2 -0.8,0.2 -1.3,0.9 -1.2,1.6 0.1,0.8 0.8,1.4 1.5,1.4 h 0.3 c 11.9,-2.7 23.9,-5 36,-6.9 l -3.6,23 c -0.1,0.9 0.6,1.7 1.5,1.7 0.7,0 1.4,-0.5 1.5,-1.3 l 1.3,-8.1 h 6.4 c 0.8,0 1.5,-0.7 1.5,-1.5 0,-0.8 -0.7,-1.5 -1.5,-1.5 h -5.9 l 2,-12.8 7.8,-1.2 0.8,5.6 h -4.7 c -0.8,0 -1.5,0.7 -1.5,1.5 0,0.8 0.7,1.5 1.5,1.5 h 5.2 l 1.8,12.2 h -7.9 c -0.8,0 -1.5,0.7 -1.5,1.5 0,0.8 0.7,1.5 1.5,1.5 h 8.3 l 0.2,1.3 c 0.1,0.7 0.7,1.3 1.5,1.3 0.5,0.5 1.2,-0.3 1.1,-1.2 z" />
  </g>
  <g
     id="g5166"
     transform="translate(-7.3548995,31.9524)">
    <path
       style="stroke-width:2.84012961"
       id="path4577"
       d="m 384.15144,208.88649 c -19.8809,0 -33.79754,14.48466 -33.79754,36.06965 v 65.891 c 0,21.58499 13.91664,36.06965 33.79754,36.06965 19.88091,0 33.79754,-14.48466 33.79754,-34.64958 v -68.73114 c -0.28401,-20.16492 -13.91663,-34.64958 -33.79754,-34.64958 z m 0,121.84156 c -9.65644,0 -16.47275,-7.38434 -16.47275,-19.02887 V 244.1041 c 0,-11.92854 6.81631,-19.02887 16.47275,-19.02887 9.65644,0 16.18874,7.38434 16.18874,17.89282 v 70.1512 c 0,10.22446 -6.5323,17.6088 -16.18874,17.6088 z M 486.11209,208.60248 h -0.28401 c -15.05269,0 -25.84518,8.23638 -30.38939,21.01696 -1.42006,4.26019 -2.2721,9.08841 -2.2721,14.20065 v 94.57631 c 0,4.82822 3.97618,8.52039 8.52039,8.52039 0.56802,0 1.13605,0 1.70408,-0.28402 3.97618,-0.85203 6.81631,-4.26019 6.81631,-8.52038 v -95.14434 c 0,-6.81631 2.2721,-12.21256 6.53229,-15.3367 2.55612,-1.98809 5.39625,-2.84013 9.08842,-2.84013 9.65644,0 15.62071,7.38434 15.62071,18.17683 v 95.14434 c 0,4.82822 3.97618,8.8044 8.8044,8.8044 4.82822,0 8.8044,-3.97618 8.8044,-8.8044 v -94.2923 c -0.28401,-20.44894 -13.3486,-34.9336 -32.9455,-35.21761 z M 314.85228,309.14307 c 0,-13.0646 -17.32479,-12.78059 -17.32479,-0.28402 -0.28401,13.91664 -6.24828,21.869 -15.90472,21.869 -9.65644,0 -15.05269,-6.5323 -15.05269,-17.32479 v -71.28725 c 0,-10.79249 5.68026,-17.32479 15.05269,-17.32479 8.8044,0 15.05268,7.10032 15.05268,20.44893 0,11.64453 17.32479,11.92854 17.32479,0 -0.56802,-22.15301 -13.63262,-36.63767 -32.37747,-36.63767 -19.5969,0 -32.66149,13.91663 -32.66149,34.36557 v 69.29916 c 0,20.73294 13.34861,34.36556 32.66149,34.36556 2.2721,0 4.26019,-0.28401 6.24828,-0.56802 h 1.42007 c 10.79249,-2.2721 19.02886,-9.94045 23.00505,-21.30097 1.42006,-4.2602 2.2721,-8.8044 2.55611,-13.91664 z m -109.629,-100.54059 c -4.82822,0 -8.52039,3.69217 -8.52039,8.52039 v 50.5543 c 0,9.94046 -6.24828,17.32479 -15.3367,17.32479 -9.08841,0 -15.05268,-7.38433 -15.05268,-17.32479 v -50.27029 c 0,-4.82822 -3.97618,-8.8044 -8.8044,-8.8044 -4.82822,0 -8.80441,3.97618 -8.80441,8.8044 v 50.55431 c 0,14.20064 7.95237,29.25333 23.85709,33.22951 v 37.48971 c 0,4.82822 3.97618,8.52039 8.52039,8.52039 4.82822,0 8.52039,-3.97618 8.52039,-8.52039 v -37.77372 c 15.90473,-3.97618 23.85709,-18.74486 23.85709,-33.22952 v -50.5543 c 0.28401,-4.54421 -3.69217,-8.52039 -8.23638,-8.52039 z m -122.125571,0 h -0.56802 c -19.88091,0 -32.37748,14.48466 -32.37748,35.50162 v 94.2923 c 0,4.82822 3.97618,8.52039 8.52039,8.52039 4.82822,0 8.52039,-3.97618 8.52039,-8.52039 v -41.7499 h 15.05268 c 19.880911,0 32.661491,-13.34861 32.661491,-32.94551 V 244.1041 c 0.28402,-20.73295 -12.21255,-35.21761 -31.809451,-35.50162 z m 14.76868,55.38253 c 0,10.22446 -5.96428,16.47275 -15.90473,16.47275 h -14.48466 v -36.92169 c 0,-11.0765 5.68026,-18.46084 15.05269,-18.46084 h 0.28401 c 9.37243,0 15.05269,7.38434 15.05269,18.46084 z"
       class="st4"
       inkscape:connector-curvature="0" />
    <path
       style="fill:#ef6360;fill-opacity:1;stroke-width:2.84012961"
       id="path4579"
       d="m 62.364769,407.69556 c 3.12414,-0.85204 5.68026,-3.12414 6.53229,-6.5323 0.28402,-1.13605 0.56803,-2.2721 0.56803,-3.69217 v -0.56802 c 0,-3.69217 -5.11223,-3.69217 -5.11223,0 0,3.97618 -1.70408,6.24828 -4.54421,6.24828 -2.84013,0 -4.26019,-1.98809 -4.26019,-5.11223 v -20.73295 c 0,-3.12414 1.70407,-5.11223 4.26019,-5.11223 2.55612,0 4.26019,1.98809 4.26019,5.96427 0,3.40816 5.11224,3.40816 5.11224,0 -0.28402,-6.5323 -3.97618,-10.79249 -9.37243,-10.79249 -5.68026,0 -9.65644,3.97618 -9.65644,9.94045 v 20.16492 c 0,5.96428 3.97618,9.94046 9.37243,9.94046 0.56802,0 1.42006,0 1.98809,-0.28402 0.56802,0.85204 0.56802,0.85204 0.85204,0.56803 z m 68.447121,-39.76181 h -1.13605 c -3.69217,0.28401 -6.5323,2.55611 -7.66835,5.96427 -0.56803,1.13605 -0.56803,2.55611 -0.56803,4.26019 v 27.54926 c 0,1.42006 1.13605,2.55612 2.55612,2.55612 1.42006,0 2.55611,-1.13606 2.55611,-2.55612 V 377.8742 c 0,-2.84013 1.42007,-4.82822 3.40816,-5.11223 h 1.13605 c 2.84013,0 4.54421,1.98809 4.54421,5.39624 v 27.83327 c 0,1.42007 1.13605,2.55612 2.55612,2.55612 1.42006,0 2.55611,-1.13605 2.55611,-2.55612 v -27.54925 c -0.28401,-6.24829 -3.97618,-10.50848 -9.94045,-10.50848 z m 63.33489,37.48971 v -34.9336 c 0,-1.42006 0.85204,-2.2721 2.2721,-2.2721 h 7.10032 c 5.96428,0 9.65644,4.26019 9.65644,10.22447 v 19.31288 c 0,5.96427 -3.69216,10.22446 -9.65644,10.22446 h -7.10032 c -1.42006,-0.28401 -2.2721,-1.13605 -2.2721,-2.55611 z m 9.37242,-2.55612 c 2.84013,0 4.54421,-1.98809 4.54421,-5.39625 v -19.31288 c 0,-3.12414 -1.70408,-5.39624 -4.54421,-5.39624 h -4.26019 v 30.10537 z M 94.458229,367.93375 c -5.68026,0 -9.65644,3.97618 -9.65644,10.22446 v 27.54926 c 0,1.42006 1.13605,2.55612 2.55612,2.55612 1.42006,0 2.55611,-1.13606 2.55611,-2.55612 v -11.36052 h 9.08842 v 11.36052 c 0,1.42006 1.136051,2.55612 2.556111,2.55612 1.42007,0 2.55612,-1.13606 2.55612,-2.55612 v -27.26524 c 0,-6.5323 -3.97618,-10.50848 -9.656441,-10.50848 z m 4.54421,21.86899 h -9.08842 v -11.64453 c 0,-3.40815 1.70408,-5.39624 4.54421,-5.39624 2.84013,0 4.54421,1.98809 4.54421,5.39624 z m 68.163111,-21.86899 c -5.68026,0 -9.37243,3.97618 -9.37243,10.22446 v 27.54926 c 0,1.42006 1.13605,2.55612 2.55612,2.55612 1.42006,0 2.55611,-1.13606 2.55611,-2.55612 v -11.36052 h 9.08842 v 11.36052 c 0,1.42006 1.13605,2.55612 2.55611,2.55612 1.42007,0 2.55612,-1.13606 2.55612,-2.55612 v -27.26524 c -0.56803,-6.5323 -4.26019,-10.50848 -9.94045,-10.50848 z m 4.5442,21.86899 h -9.08841 v -11.64453 c 0,-3.40815 1.70408,-5.39624 4.54421,-5.39624 2.84013,0 4.5442,1.98809 4.5442,5.39624 z m 67.59509,-21.86899 c -5.68026,0 -9.37243,3.97618 -9.37243,10.22446 v 27.54926 c 0,1.42006 1.13605,2.55612 2.55612,2.55612 1.42006,0 2.55611,-1.13606 2.55611,-2.55612 v -11.36052 h 9.08842 v 11.36052 c 0,1.42006 1.13605,2.55612 2.55611,2.55612 1.42007,0 2.55612,-1.13606 2.55612,-2.55612 v -27.26524 c -0.28401,-6.5323 -4.26019,-10.50848 -9.94045,-10.50848 z m 4.5442,21.86899 h -9.08841 v -11.64453 c 0,-3.40815 1.70408,-5.39624 4.54421,-5.39624 2.84013,0 4.5442,1.98809 4.5442,5.39624 z"
       class="st8"
       inkscape:connector-curvature="0" />
  </g>
</svg>
